<svg width="757" height="566" viewBox="0 0 757 566" fill="none" xmlns="http://www.w3.org/2000/svg">
<path d="M676.893 108.553C689.993 148.808 673.193 197.114 639.393 220.491C605.493 243.868 554.493 242.316 518.793 217.775C483.093 193.234 462.693 145.704 475.093 106.225C487.593 66.6489 532.993 35.3179 576.993 35.7059C621.093 36.0939 663.893 68.2979 676.893 108.553Z" stroke="#D0D7DA" stroke-width="20"/>
<path d="M422.693 452.224C430.793 478.317 413.893 510.424 388.093 527.884C362.393 545.441 327.793 548.254 305.293 532.928C282.793 517.505 272.393 483.943 281.593 456.395C290.793 428.847 319.493 407.41 350.493 406.731C381.493 406.052 414.593 426.131 422.693 452.224Z" stroke="#D0D7DA" stroke-width="20"/>
<path d="M116.593 433.6C127.993 469.199 113.793 511.2 82.0926 534.771C50.3926 558.245 1.09263 563.192 -29.5074 541.949C-60.0074 520.706 -71.9074 473.273 -58.6074 435.152C-45.4074 397.031 -7.00737 368.319 30.5926 368.61C68.1926 368.804 105.193 397.904 116.593 433.6Z" stroke="#D0D7DA" stroke-width="20"/>
<path d="M46.4926 29.5949C50.3926 40.9439 44.5926 55.6879 33.8926 62.9629C23.1926 70.2379 7.69261 70.1409 -3.40739 62.6719C-14.5074 55.1059 -21.2074 40.3619 -17.4074 29.0129C-13.5074 17.6639 0.892616 9.9039 14.8926 10.0009C28.8926 10.1949 42.5926 18.1489 46.4926 29.5949Z" stroke="#D0D7DA" stroke-width="20"/>
<path d="M745.093 477.541C748.393 488.308 742.693 500.918 733.493 506.932C724.393 512.849 711.693 512.267 702.593 506.059C693.593 499.851 688.093 488.017 691.093 477.638C694.093 467.259 705.693 458.238 717.593 458.141C729.593 458.044 741.793 466.871 745.093 477.541Z" stroke="#D0D7DA" stroke-width="20"/>
</svg>
